
<svg xmlns="http://www.w3.org/2000/svg" width="30" height="30" viewBox="0 0 106.299 106.299"><g fill="#fac"><path d="M91.496 58.789c.249-1.738.497-3.476.497-5.462 0-1.986-.248-3.723-.497-5.46l11.171-7.944c.993-.745 1.49-2.235.745-3.476l-10.923-18.37c-.744-1.24-1.986-1.737-3.227-.992l-12.412 5.71a44.5 44.5 0 0 0-9.433-5.462L66.176 3.68c-.248-1.241-1.241-2.234-2.482-2.234H42.345c-1.241 0-2.482.993-2.482 2.234l-1.241 13.653c-3.476 1.49-6.703 3.227-9.433 5.461l-12.412-5.71c-1.242-.496-2.73 0-3.227.994L2.875 36.448c-.744 1.24-.248 2.73.745 3.475l11.17 7.943c-.247 1.738-.496 3.475-.496 5.461 0 1.986.249 3.724.497 5.462L3.124 66.732c-.993.745-1.49 2.234-.745 3.476l10.674 18.37c.745 1.24 1.986 1.737 3.227.992l12.412-5.71a44.502 44.502 0 0 0 9.433 5.462l1.241 13.653c.249 1.241 1.242 2.234 2.483 2.234h21.348c1.241 0 2.483-.993 2.483-2.234l1.24-13.653c3.476-1.49 6.703-3.227 9.434-5.461l12.412 5.71c1.24.496 2.73 0 3.227-.994l10.674-18.37c.745-1.24.248-2.73-.745-3.475L91.496 58.79zM52.771 78.15c-13.653 0-24.824-11.17-24.824-24.824 0-13.653 11.171-24.823 24.824-24.823 13.653 0 24.824 11.17 24.824 24.823S66.425 78.151 52.77 78.151z"/><path d="M52.233 35.583c-9.274-.296-15.946 8.879-15.349 17.624-.984 9.002 5.36 19.029 15.105 18.84 7.937.652 15.481-5.666 15.437-14.26l-7.018-.077c-2.55 10.265-14.84 7.816-14.987-.391-1.575-6.213.516-14.186 8.005-13.539 3.446.182 5.343 4.79 5.141 6.977l8.55-.054c-.235-9.234-7.784-15.614-14.884-15.12z" /></g></svg>
